<svg width="242" height="84" viewBox="0 0 242 84" fill="none" xmlns="http://www.w3.org/2000/svg">
<path d="M79.2 51.2C77.7333 52.3333 76.4 53.6333 75.2 55.1C74.2 56.3667 73.3 57.8667 72.5 59.6C71.7 61.2667 71.3 63.1667 71.3 65.3C71.3 67.5 71.9 69.4333 73.1 71.1C74.3 72.7667 75.8667 74.1333 77.8 75.2C79.8 76.3333 82.0667 77.1667 84.6 77.7C87.1333 78.3 89.7 78.6 92.3 78.6C94.8333 78.6 97.4333 78.4 100.1 78C102.767 77.6667 105.2 77.0333 107.4 76.1C109.6 75.1667 111.4 73.9 112.8 72.3C114.2 70.7667 114.9 68.7667 114.9 66.3C114.9 63.7667 114.467 61.7 113.6 60.1C112.733 58.4333 111.467 57.1333 109.8 56.2C108.2 55.2667 106.233 54.6333 103.9 54.3C101.567 53.9 98.9333 53.7 96 53.7C94 53.7 91.9333 53.6 89.8 53.4C87.6667 53.2 85.6 52.8667 83.6 52.4C81.6667 51.9333 79.9333 51.3 78.4 50.5C76.8667 49.7 75.7333 48.7 75 47.5C74.2667 46.3 74.0333 44.8667 74.3 43.2C74.6333 41.5333 75.6667 39.5667 77.4 37.3C75.4667 35.6333 73.9 33.6667 72.7 31.4C71.5667 29.1333 71 26.5667 71 23.7C71 20.7 71.6333 18.0333 72.9 15.7C74.1667 13.3667 75.8 11.4 77.8 9.8C79.8 8.2 82.0667 6.96667 84.6 6.1C87.1333 5.23333 89.7 4.8 92.3 4.8C94.4333 4.8 96.5667 5.1 98.7 5.7C100.833 6.3 102.8 7.16667 104.6 8.3C105.2 7.56666 106.033 6.76666 107.1 5.9C108.167 5.03333 109.267 4.2 110.4 3.4C111.6 2.46667 112.933 1.53333 114.4 0.599998V6.6C113.933 6.66666 113.367 6.7 112.7 6.7C112.1 6.7 111.433 6.76666 110.7 6.9C109.967 6.96667 109.133 7.13333 108.2 7.4C107.333 7.66666 106.433 8.13333 105.5 8.8C107.833 10.4 109.767 12.4667 111.3 15C112.833 17.4667 113.6 20.3667 113.6 23.7C113.6 26.6333 112.967 29.2667 111.7 31.6C110.433 33.9333 108.767 35.9 106.7 37.5C104.7 39.1 102.433 40.3333 99.9 41.2C97.3667 42.0667 94.8333 42.5 92.3 42.5C89.7667 42.5 87.2333 42.1 84.7 41.3C82.2333 40.4333 80 39.2333 78 37.7C76.6 39.7 76.1 41.3667 76.5 42.7C76.9 44.0333 77.8667 45.1 79.4 45.9C80.9333 46.7 82.9333 47.2667 85.4 47.6C87.9333 47.8667 90.6 48 93.4 48C96.4 48 99.2333 48.3667 101.9 49.1C104.633 49.7667 107 50.8667 109 52.4C111.067 53.8667 112.7 55.7667 113.9 58.1C115.1 60.3667 115.7 63.0667 115.7 66.2C115.7 69.2 115.033 71.8 113.7 74C112.433 76.2667 110.733 78.1 108.6 79.5C106.467 80.9667 104 82.0333 101.2 82.7C98.4 83.4333 95.4667 83.8 92.4 83.8C88.8 83.8 85.6333 83.3 82.9 82.3C80.1667 81.3 77.8667 79.9333 76 78.2C74.1333 76.5333 72.7 74.5667 71.7 72.3C70.7667 70.1 70.3 67.7333 70.3 65.2C70.3 63.0667 70.7333 61.1333 71.6 59.4C72.5333 57.6667 73.5667 56.2 74.7 55C75.9667 53.6 77.4667 52.3333 79.2 51.2ZM76.1 23.7C76.1 26.3667 76.5 28.8 77.3 31C78.1667 33.2 79.3333 35.1 80.8 36.7C82.2667 38.2333 83.9667 39.4333 85.9 40.3C87.9 41.1667 90.0333 41.6 92.3 41.6C94.5667 41.6 96.6667 41.1667 98.6 40.3C100.6 39.4333 102.3 38.2333 103.7 36.7C105.167 35.1 106.3 33.2 107.1 31C107.967 28.8 108.4 26.3667 108.4 23.7C108.4 21.0333 107.967 18.6 107.1 16.4C106.3 14.1333 105.167 12.2 103.7 10.6C102.3 9 100.6 7.76666 98.6 6.9C96.6667 6.03333 94.5667 5.6 92.3 5.6C90.0333 5.6 87.9 6.03333 85.9 6.9C83.9667 7.76666 82.2667 9 80.8 10.6C79.3333 12.2 78.1667 14.1333 77.3 16.4C76.5 18.6 76.1 21.0333 76.1 23.7Z" fill="white"/>
<path d="M131.975 38C129.625 38 127.475 37.625 125.525 36.875C123.575 36.075 121.875 35 120.425 33.65C119.025 32.25 117.925 30.625 117.125 28.775C116.375 26.875 116 24.8 116 22.55C116 20.3 116.325 18.25 116.975 16.4C117.625 14.5 118.575 12.875 119.825 11.525C121.125 10.175 122.675 9.125 124.475 8.375C126.275 7.625 128.35 7.25 130.7 7.25C132.7 7.25 134.5 7.6 136.1 8.3C137.7 9 139.05 9.975 140.15 11.225C141.3 12.475 142.175 13.95 142.775 15.65C143.425 17.3 143.775 19.1 143.825 21.05V21.725H119.9C119.9 21.825 119.875 21.95 119.825 22.1C119.825 22.25 119.825 22.4 119.825 22.55C119.825 24.55 120.075 26.425 120.575 28.175C121.125 29.925 121.925 31.475 122.975 32.825C124.025 34.125 125.3 35.175 126.8 35.975C128.3 36.725 130.025 37.1 131.975 37.1C133.725 37.1 135.275 36.8 136.625 36.2C137.975 35.55 139.125 34.825 140.075 34.025C141.175 33.125 142.15 32.075 143 30.875L143.45 31.175C142.6 32.475 141.6 33.625 140.45 34.625C139.45 35.475 138.225 36.25 136.775 36.95C135.375 37.65 133.775 38 131.975 38ZM130.7 7.85C128.95 7.85 127.4 8.2 126.05 8.9C124.75 9.55 123.65 10.475 122.75 11.675C121.9 12.825 121.225 14.225 120.725 15.875C120.275 17.475 120 19.2 119.9 21.05H139.925C139.875 19.7 139.675 18.25 139.325 16.7C138.975 15.15 138.425 13.725 137.675 12.425C136.975 11.075 136.05 9.975 134.9 9.125C133.75 8.275 132.35 7.85 130.7 7.85Z" fill="white"/>
<path d="M154.559 36.95C155.659 36.95 156.534 36.65 157.184 36.05C157.884 35.4 158.284 34.975 158.384 34.775C158.334 34.875 158.209 35.1 158.009 35.45C157.859 35.8 157.609 36.175 157.259 36.575C156.909 36.925 156.484 37.25 155.984 37.55C155.484 37.8 154.884 37.925 154.184 37.925C152.734 37.925 151.559 37.7 150.659 37.25C149.759 36.8 149.059 36.2 148.559 35.45C148.059 34.65 147.709 33.725 147.509 32.675C147.359 31.575 147.284 30.425 147.284 29.225V7.475H143.759V6.875H145.409C146.209 6.775 146.934 6.425 147.584 5.825C148.234 5.225 148.809 4.575 149.309 3.875C149.809 3.175 150.184 2.525 150.434 1.925C150.734 1.325 150.909 0.949997 150.959 0.799999V6.875H156.734V7.475H150.959V30.2C150.959 30.7 150.984 31.325 151.034 32.075C151.084 32.825 151.234 33.575 151.484 34.325C151.734 35.025 152.084 35.65 152.534 36.2C153.034 36.7 153.709 36.95 154.559 36.95ZM158.459 34.7C158.459 34.75 158.434 34.775 158.384 34.775L158.459 34.7Z" fill="white"/>
<path d="M9.90001 75.8C9.90001 76.8 10.0667 77.6667 10.4 78.4C10.7333 79.1333 11.2 79.8 11.8 80.4C12.4667 81 13.4667 81.4 14.8 81.6H0.100006C1.43334 81.4 2.40001 81 3.00001 80.4C3.66667 79.8 4.16667 79.1333 4.50001 78.4C4.83334 77.6667 5.00001 76.8 5.00001 75.8V49C5.00001 48.8667 4.96667 48.6333 4.90001 48.3C4.90001 47.9667 4.80001 47.6 4.60001 47.2C4.40001 46.8 4.03334 46.4333 3.50001 46.1C3.03334 45.7667 2.33334 45.5 1.40001 45.3L9.90001 41.3V51.1C10.2333 50.5 10.7667 49.6333 11.5 48.5C12.3 47.3667 13.2667 46.2333 14.4 45.1C15.5333 43.9667 16.8333 43 18.3 42.2C19.7667 41.3333 21.3667 40.9 23.1 40.9C24.5667 40.9 25.8 41.0333 26.8 41.3C27.8 41.5 28.6 41.7333 29.2 42C29.9333 42.3333 30.5 42.7 30.9 43.1L28.5 50.5C28.5667 50.0333 28.4667 49.3667 28.2 48.5C28 47.5667 27.6333 46.6667 27.1 45.8C26.5667 44.9333 25.8667 44.2 25 43.6C24.2 42.9333 23.2 42.6 22 42.6C20.5333 42.6 19.1333 43 17.8 43.8C16.5333 44.6 15.3667 45.5667 14.3 46.7C13.2333 47.7667 12.3 48.8333 11.5 49.9C10.7667 50.9667 10.2333 51.7667 9.90001 52.3V75.8Z" fill="white"/>
<path d="M50.5969 82C47.4635 82 44.5969 81.5 41.9969 80.5C39.3969 79.4333 37.1302 78 35.1969 76.2C33.3302 74.3333 31.8635 72.1667 30.7969 69.7C29.7969 67.1667 29.2969 64.4 29.2969 61.4C29.2969 58.4 29.7302 55.6667 30.5969 53.2C31.4635 50.6667 32.7302 48.5 34.3969 46.7C36.1302 44.9 38.1969 43.5 40.5969 42.5C42.9969 41.5 45.7635 41 48.8969 41C51.5635 41 53.9636 41.4667 56.0969 42.4C58.2302 43.3333 60.0302 44.6333 61.4969 46.3C63.0302 47.9667 64.1969 49.9333 64.9969 52.2C65.8636 54.4 66.3302 56.8 66.3969 59.4V60.3H34.4969C34.4969 60.4333 34.4635 60.6 34.3969 60.8C34.3969 61 34.3969 61.2 34.3969 61.4C34.3969 64.0667 34.7302 66.5667 35.3969 68.9C36.1302 71.2333 37.1969 73.3 38.5969 75.1C39.9969 76.8333 41.6969 78.2333 43.6969 79.3C45.6969 80.3 47.9969 80.8 50.5969 80.8C52.9302 80.8 54.9969 80.4 56.7969 79.6C58.5969 78.7333 60.1302 77.7667 61.3969 76.7C62.8635 75.5 64.1636 74.1 65.2969 72.5L65.8969 72.9C64.7635 74.6333 63.4302 76.1667 61.8969 77.5C60.5635 78.6333 58.9302 79.6667 56.9969 80.6C55.1302 81.5333 52.9969 82 50.5969 82ZM48.8969 41.8C46.5635 41.8 44.4969 42.2667 42.6969 43.2C40.9635 44.0667 39.4969 45.3 38.2969 46.9C37.1636 48.4333 36.2635 50.3 35.5969 52.5C34.9969 54.6333 34.6302 56.9333 34.4969 59.4H61.1969C61.1302 57.6 60.8636 55.6667 60.3969 53.6C59.9302 51.5333 59.1969 49.6333 58.1969 47.9C57.2635 46.1 56.0302 44.6333 54.4969 43.5C52.9636 42.3667 51.0969 41.8 48.8969 41.8Z" fill="white"/>
<path d="M151.351 75.8C151.284 76.7333 151.384 77.5667 151.651 78.3C151.851 78.9667 152.184 79.6 152.651 80.2C153.184 80.8 153.951 81.2667 154.951 81.6C153.284 81.5333 151.851 81.3333 150.651 81C149.584 80.6667 148.617 80.2 147.751 79.6C146.884 78.9333 146.451 77.9333 146.451 76.6V73.5C145.984 74.1 145.317 74.8667 144.451 75.8C143.651 76.7333 142.684 77.6667 141.551 78.6C140.417 79.4667 139.117 80.2333 137.651 80.9C136.251 81.5 134.717 81.8 133.051 81.8C128.117 81.8 124.384 80.7333 121.851 78.6C119.384 76.4667 118.151 73.5333 118.151 69.8V49C118.151 48.8667 118.117 48.6333 118.051 48.3C118.051 47.9667 117.951 47.6 117.751 47.2C117.551 46.8 117.184 46.4333 116.651 46.1C116.184 45.7667 115.484 45.5 114.551 45.3L122.951 41.3V69.8C122.951 73.2 123.884 75.9 125.751 77.9C127.684 79.8333 130.284 80.8 133.551 80.8C135.084 80.8 136.551 80.4667 137.951 79.8C139.351 79.0667 140.617 78.2667 141.751 77.4C142.884 76.4667 143.851 75.5333 144.651 74.6C145.451 73.6667 146.051 72.9333 146.451 72.4V48.8C146.451 48.4 146.284 47.8 145.951 47C145.617 46.2 144.584 45.6333 142.851 45.3L151.351 41.3V75.8Z" fill="white"/>
<path d="M157.031 81.6C158.365 81.4 159.331 81 159.931 80.4C160.598 79.8 161.098 79.1333 161.431 78.4C161.765 77.6667 161.931 76.8 161.931 75.8V34.2C161.931 34.0667 161.898 33.8333 161.831 33.5C161.831 33.1667 161.731 32.8 161.531 32.4C161.331 32 160.965 31.6333 160.431 31.3C159.965 30.9667 159.265 30.7 158.331 30.5L166.831 26.5V75.8C166.831 76.8 166.998 77.6667 167.331 78.4C167.665 79.1333 168.131 79.8 168.731 80.4C169.398 81 170.398 81.4 171.731 81.6H157.031Z" fill="white"/>
<path d="M204.58 76.6C204.58 78 204.946 79.1 205.68 79.9C206.48 80.7 207.38 81.2667 208.38 81.6C205.38 81.6 203.213 81.0667 201.88 80C200.613 78.8667 199.913 77.5333 199.78 76C199.646 76.1333 199.18 76.5 198.38 77.1C197.58 77.7 196.48 78.3667 195.08 79.1C193.746 79.8333 192.146 80.5 190.28 81.1C188.48 81.6333 186.48 81.9 184.28 81.9C179.813 81.9 176.58 81.0667 174.58 79.4C172.646 77.6667 171.68 75.4667 171.68 72.8C171.68 70.8 172.28 69 173.48 67.4C174.746 65.7333 176.313 64.2667 178.18 63C180.113 61.6667 182.213 60.5 184.48 59.5C186.813 58.5 189.013 57.6333 191.08 56.9C193.146 56.1667 194.946 55.5667 196.48 55.1C198.08 54.5667 199.146 54.1667 199.68 53.9V53.6C199.68 52.1333 199.48 50.7333 199.08 49.4C198.746 48 198.146 46.7667 197.28 45.7C196.48 44.6333 195.346 43.7667 193.88 43.1C192.413 42.4333 190.58 42.1 188.38 42.1C186.246 42.1 184.413 42.5667 182.88 43.5C181.413 44.4333 180.18 45.5667 179.18 46.9C178.18 48.1667 177.413 49.5 176.88 50.9C176.413 52.2333 176.113 53.3667 175.98 54.3L175.18 46.8C175.18 46.8 175.446 46.5 175.98 45.9C176.58 45.3 177.446 44.6667 178.58 44C179.713 43.3333 181.113 42.7333 182.78 42.2C184.446 41.6 186.413 41.3 188.68 41.3C190.213 41.3 191.88 41.4667 193.68 41.8C195.546 42.1333 197.28 42.8 198.88 43.8C200.48 44.7333 201.813 46.0667 202.88 47.8C204.013 49.4667 204.58 51.6667 204.58 54.4V76.6ZM176.78 71.6C176.78 72.7333 177.013 73.8667 177.48 75C177.946 76.0667 178.546 77.0333 179.28 77.9C180.08 78.7667 180.98 79.5 181.98 80.1C182.98 80.6333 184.046 80.9 185.18 80.9C186.98 80.9 188.713 80.6333 190.38 80.1C192.113 79.5 193.613 78.8667 194.88 78.2C196.213 77.4667 197.28 76.7667 198.08 76.1C198.946 75.4333 199.48 75.0333 199.68 74.9V54.8C199.146 55.0667 198.213 55.4333 196.88 55.9C195.613 56.3667 194.113 56.9333 192.38 57.6C190.713 58.2 188.946 58.9333 187.08 59.8C185.28 60.6667 183.613 61.7 182.08 62.9C180.546 64.0333 179.28 65.3333 178.28 66.8C177.28 68.2 176.78 69.8 176.78 71.6Z" fill="white"/>
<path d="M220.447 75.8C220.447 76.8 220.614 77.6667 220.947 78.4C221.28 79.1333 221.747 79.8 222.347 80.4C223.014 81 224.014 81.4 225.347 81.6H210.647C211.98 81.4 212.947 81 213.547 80.4C214.214 79.8 214.714 79.1333 215.047 78.4C215.38 77.6667 215.547 76.8 215.547 75.8V49C215.547 48.8667 215.514 48.6333 215.447 48.3C215.447 47.9667 215.347 47.6 215.147 47.2C214.947 46.8 214.58 46.4333 214.047 46.1C213.58 45.7667 212.88 45.5 211.947 45.3L220.447 41.3V51.1C220.78 50.5 221.314 49.6333 222.047 48.5C222.847 47.3667 223.814 46.2333 224.947 45.1C226.08 43.9667 227.38 43 228.847 42.2C230.314 41.3333 231.914 40.9 233.647 40.9C235.114 40.9 236.347 41.0333 237.347 41.3C238.347 41.5 239.147 41.7333 239.747 42C240.48 42.3333 241.047 42.7 241.447 43.1L239.047 50.5C239.114 50.0333 239.014 49.3667 238.747 48.5C238.547 47.5667 238.18 46.6667 237.647 45.8C237.114 44.9333 236.414 44.2 235.547 43.6C234.747 42.9333 233.747 42.6 232.547 42.6C231.08 42.6 229.68 43 228.347 43.8C227.08 44.6 225.914 45.5667 224.847 46.7C223.78 47.7667 222.847 48.8333 222.047 49.9C221.314 50.9667 220.78 51.7667 220.447 52.3V75.8Z" fill="white"/>
</svg>
