<svg width="143" height="49" viewBox="0 0 143 49" fill="none" xmlns="http://www.w3.org/2000/svg">
<path d="M46.3807 29.8005C45.5097 30.4679 44.7179 31.2336 44.0053 32.0974C43.4114 32.8433 42.8769 33.7268 42.4018 34.7476C41.9268 35.7292 41.6892 36.8482 41.6892 38.1046C41.6892 39.4002 42.0455 40.5389 42.7582 41.5204C43.4708 42.502 44.4012 43.3069 45.5493 43.9351C46.737 44.6026 48.0831 45.0934 49.5876 45.4075C51.092 45.7608 52.6163 45.9375 54.1603 45.9375C55.6648 45.9375 57.2088 45.8197 58.7925 45.5841C60.3761 45.3878 61.8212 45.0148 63.1277 44.4651C64.4342 43.9155 65.5031 43.1695 66.3345 42.2272C67.166 41.3241 67.5817 40.1462 67.5817 38.6935C67.5817 37.2015 67.3243 35.9844 66.8096 35.0421C66.295 34.0605 65.5427 33.2949 64.553 32.7452C63.6028 32.1955 62.4348 31.8225 61.0492 31.6262C59.6635 31.3906 58.0996 31.2728 56.3576 31.2728C55.1699 31.2728 53.9426 31.2139 52.6757 31.0962C51.4088 30.9784 50.1815 30.7821 48.9937 30.5072C47.8456 30.2324 46.8162 29.8594 45.9056 29.3882C44.9951 28.9171 44.322 28.3281 43.8865 27.6214C43.451 26.9147 43.3124 26.0705 43.4708 25.0889C43.6688 24.1074 44.2824 22.9491 45.3118 21.6142C44.1636 20.6326 43.2333 19.4744 42.5206 18.1394C41.8476 16.8045 41.5111 15.2929 41.5111 13.6046C41.5111 11.8377 41.8872 10.2672 42.6394 8.89303C43.3916 7.51883 44.3616 6.36058 45.5493 5.41827C46.737 4.47596 48.0831 3.7496 49.5876 3.23918C51.092 2.72877 52.6163 2.47356 54.1603 2.47356C55.4273 2.47356 56.6942 2.65024 57.9611 3.00361C59.228 3.35697 60.3959 3.86739 61.4649 4.53486C61.8212 4.10296 62.3161 3.63181 62.9495 3.12139C63.583 2.61098 64.2362 2.12019 64.9093 1.64904C65.6219 1.09936 66.4137 0.549679 67.2847 0V3.53365C67.0076 3.57292 66.6711 3.59255 66.2752 3.59255C65.9188 3.59255 65.5229 3.63181 65.0874 3.71034C64.6519 3.7496 64.157 3.84776 63.6028 4.00481C63.0881 4.16186 62.5536 4.4367 61.9993 4.82933C63.385 5.77164 64.5332 6.98878 65.4438 8.48077C66.3543 9.93349 66.8096 11.6414 66.8096 13.6046C66.8096 15.3321 66.4335 16.883 65.6813 18.2572C64.9291 19.6314 63.9393 20.7897 62.712 21.732C61.5243 22.6743 60.1782 23.4006 58.6737 23.9111C57.1693 24.4215 55.6648 24.6767 54.1603 24.6767C52.6559 24.6767 51.1514 24.4411 49.647 23.97C48.1821 23.4595 46.8558 22.7528 45.6681 21.8498C44.8367 23.0276 44.5398 24.0092 44.7773 24.7945C45.0149 25.5797 45.5889 26.2079 46.4995 26.6791C47.4101 27.1502 48.5978 27.484 50.0627 27.6803C51.5671 27.8373 53.1508 27.9159 54.8136 27.9159C56.5952 27.9159 58.2778 28.1318 59.8614 28.5637C61.4847 28.9563 62.8901 29.6042 64.0779 30.5072C65.3052 31.371 66.2752 32.49 66.9878 33.8642C67.7004 35.1991 68.0568 36.7893 68.0568 38.6346C68.0568 40.4014 67.6608 41.9327 66.869 43.2284C66.1168 44.5633 65.1072 45.643 63.8403 46.4675C62.5734 47.3313 61.1085 47.9595 59.4457 48.3522C57.7829 48.7841 56.0409 49 54.2197 49C52.0818 49 50.2013 48.7055 48.578 48.1166C46.9548 47.5276 45.5889 46.7228 44.4804 45.7019C43.3718 44.7204 42.5206 43.5621 41.9268 42.2272C41.3725 40.9315 41.0953 39.5377 41.0953 38.0457C41.0953 36.7893 41.3527 35.6506 41.8674 34.6298C42.4216 33.609 43.0353 32.7452 43.7083 32.0385C44.4606 31.2139 45.3514 30.4679 46.3807 29.8005ZM44.5398 13.6046C44.5398 15.1751 44.7773 16.6082 45.2524 17.9038C45.7671 19.1995 46.4599 20.3185 47.3309 21.2608C48.2019 22.1639 49.2115 22.8706 50.3596 23.381C51.5473 23.8914 52.8143 24.1466 54.1603 24.1466C55.5064 24.1466 56.7535 23.8914 57.9017 23.381C59.0894 22.8706 60.099 22.1639 60.9304 21.2608C61.8014 20.3185 62.4744 19.1995 62.9495 17.9038C63.4642 16.6082 63.7215 15.1751 63.7215 13.6046C63.7215 12.0341 63.4642 10.601 62.9495 9.30529C62.4744 7.97035 61.8014 6.83173 60.9304 5.88942C60.099 4.94711 59.0894 4.22075 57.9017 3.71034C56.7535 3.19992 55.5064 2.94471 54.1603 2.94471C52.8143 2.94471 51.5473 3.19992 50.3596 3.71034C49.2115 4.22075 48.2019 4.94711 47.3309 5.88942C46.4599 6.83173 45.7671 7.97035 45.2524 9.30529C44.7773 10.601 44.5398 12.0341 44.5398 13.6046Z" fill="black"/>
<path d="M78.3157 22.9468C76.9202 22.9468 75.6434 22.7259 74.4853 22.2842C73.3273 21.8131 72.3177 21.18 71.4566 20.3849C70.6252 19.5604 69.972 18.6034 69.4969 17.5138C69.0515 16.3948 68.8288 15.1728 68.8288 13.8476C68.8288 12.5225 69.0218 11.3152 69.4078 10.2256C69.7938 9.10666 70.358 8.14962 71.1003 7.35455C71.8723 6.55948 72.7928 5.94109 73.8618 5.49939C74.9307 5.05768 76.163 4.83682 77.5586 4.83682C78.7463 4.83682 79.8152 5.04295 80.7654 5.45521C81.7156 5.86747 82.5173 6.44169 83.1706 7.17787C83.8535 7.91405 84.3731 8.78274 84.7295 9.78394C85.1155 10.7557 85.3233 11.8158 85.353 12.9642V13.3618H71.1448C71.1448 13.4207 71.13 13.4943 71.1003 13.5826C71.1003 13.671 71.1003 13.7593 71.1003 13.8476C71.1003 15.0255 71.2488 16.1298 71.5457 17.1604C71.8723 18.1911 72.3474 19.1039 72.971 19.899C73.5945 20.6646 74.3517 21.283 75.2425 21.7542C76.1333 22.1959 77.1577 22.4167 78.3157 22.4167C79.355 22.4167 80.2755 22.2401 81.0772 21.8867C81.8789 21.5039 82.5619 21.0769 83.126 20.6057C83.7793 20.0757 84.3583 19.4573 84.8631 18.7506L85.1303 18.9273C84.6255 19.6929 84.0317 20.3702 83.3487 20.9591C82.7549 21.4597 82.0274 21.9161 81.1663 22.3284C80.3349 22.7407 79.3847 22.9468 78.3157 22.9468ZM77.5586 5.19019C76.5193 5.19019 75.5988 5.39632 74.7971 5.80858C74.0251 6.19139 73.3718 6.73616 72.8373 7.44289C72.3326 8.12018 71.9317 8.9447 71.6348 9.91645C71.3675 10.8588 71.2042 11.8747 71.1448 12.9642H83.0369C83.0073 12.1692 82.8885 11.3152 82.6806 10.4023C82.4728 9.48947 82.1462 8.65023 81.7008 7.8846C81.2851 7.08953 80.7357 6.44169 80.0528 5.94109C79.3699 5.44049 78.5384 5.19019 77.5586 5.19019Z" fill="black"/>
<path d="M91.7274 22.3284C92.3807 22.3284 92.9003 22.1517 93.2863 21.7984C93.702 21.4155 93.9396 21.1652 93.9989 21.0475C93.9693 21.1063 93.895 21.2389 93.7763 21.445C93.6872 21.6511 93.5387 21.872 93.3309 22.1075C93.123 22.3137 92.8706 22.5051 92.5737 22.6818C92.2767 22.829 91.9204 22.9026 91.5047 22.9026C90.6436 22.9026 89.9458 22.7701 89.4114 22.5051C88.8769 22.2401 88.4612 21.8867 88.1642 21.445C87.8673 20.9738 87.6595 20.4291 87.5407 19.8107C87.4516 19.1628 87.4071 18.4856 87.4071 17.7788V4.96934H85.3137V4.61597H86.2936C86.7687 4.55708 87.1992 4.35095 87.5852 3.99758C87.9712 3.64422 88.3127 3.2614 88.6096 2.84915C88.9066 2.43689 89.1293 2.05407 89.2777 1.70071C89.4559 1.34734 89.5598 1.12649 89.5895 1.03815V4.61597H93.0191V4.96934H89.5895V18.3531C89.5895 18.6475 89.6044 19.0156 89.6341 19.4573C89.6637 19.899 89.7528 20.3407 89.9013 20.7824C90.0498 21.1947 90.2576 21.5628 90.5249 21.8867C90.8218 22.1812 91.2226 22.3284 91.7274 22.3284ZM94.0435 21.0033C94.0435 21.0327 94.0286 21.0475 93.9989 21.0475L94.0435 21.0033Z" fill="black"/>
<path d="M5.81986 45.2088C5.81986 45.7977 5.91884 46.3082 6.11679 46.7401C6.31475 47.172 6.59188 47.5646 6.9482 47.9179C7.34411 48.2713 7.93797 48.5069 8.72979 48.6247H0C0.791818 48.5069 1.36589 48.2713 1.7222 47.9179C2.11811 47.5646 2.41504 47.172 2.613 46.7401C2.81095 46.3082 2.90993 45.7977 2.90993 45.2088V29.4252C2.90993 29.3466 2.89014 29.2092 2.85054 29.0129C2.85054 28.8166 2.79116 28.6006 2.67239 28.3651C2.55361 28.1295 2.33586 27.9135 2.01914 27.7172C1.742 27.5209 1.3263 27.3639 0.772022 27.2461L5.81986 24.8903V30.6619C6.01782 30.3086 6.33454 29.7982 6.77004 29.1307C7.24513 28.4632 7.8192 27.7957 8.49225 27.1283C9.16529 26.4608 9.93731 25.8915 10.8083 25.4203C11.6793 24.9099 12.6295 24.6547 13.6589 24.6547C14.5299 24.6547 15.2623 24.7332 15.8562 24.8903C16.45 25.0081 16.9251 25.1455 17.2814 25.3026C17.7169 25.4989 18.0534 25.7148 18.291 25.9504L16.8657 30.3086C16.9053 30.0337 16.8459 29.6411 16.6876 29.1307C16.5688 28.581 16.351 28.051 16.0343 27.5405C15.7176 27.0301 15.3019 26.5982 14.7872 26.2449C14.3121 25.8522 13.7182 25.6559 13.0056 25.6559C12.1346 25.6559 11.3032 25.8915 10.5114 26.3627C9.75916 26.8338 9.06632 27.4031 8.43286 28.0706C7.79941 28.6988 7.24513 29.327 6.77004 29.9552C6.33454 30.5834 6.01782 31.0546 5.81986 31.3687V45.2088Z" fill="black"/>
<path d="M29.9882 48.8603C28.1275 48.8603 26.4251 48.5658 24.881 47.9768C23.337 47.3486 21.9909 46.5045 20.8428 45.4444C19.7342 44.345 18.8632 43.069 18.2298 41.6163C17.6359 40.1243 17.339 38.4949 17.339 36.728C17.339 34.9612 17.5963 33.3514 18.111 31.8987C18.6257 30.4067 19.3779 29.1307 20.3677 28.0706C21.397 27.0105 22.6243 26.186 24.0496 25.597C25.4749 25.0081 27.1179 24.7136 28.9787 24.7136C30.5623 24.7136 31.9876 24.9885 33.2545 25.5381C34.5214 26.0878 35.5904 26.8534 36.4614 27.835C37.372 28.8166 38.0648 29.9748 38.5399 31.3098C39.0546 32.6054 39.3317 34.0189 39.3713 35.5502V36.0802H20.427C20.427 36.1587 20.4073 36.2569 20.3677 36.3747C20.3677 36.4925 20.3677 36.6103 20.3677 36.728C20.3677 38.2986 20.5656 39.7709 20.9615 41.1451C21.397 42.5193 22.0305 43.7365 22.8619 44.7965C23.6933 45.8174 24.7029 46.6419 25.8906 47.2701C27.0783 47.8591 28.4442 48.1535 29.9882 48.1535C31.3739 48.1535 32.6012 47.9179 33.6702 47.4468C34.7392 46.9364 35.6497 46.3671 36.402 45.7389C37.273 45.0321 38.045 44.2076 38.718 43.2653L39.0744 43.5009C38.4013 44.5217 37.6095 45.4248 36.6989 46.21C35.9071 46.8775 34.9371 47.4861 33.789 48.0357C32.6804 48.5854 31.4135 48.8603 29.9882 48.8603ZM28.9787 25.1848C27.593 25.1848 26.3657 25.4596 25.2967 26.0093C24.2674 26.5197 23.3964 27.2461 22.6837 28.1884C22.0107 29.0914 21.4762 30.1908 21.0803 31.4865C20.724 32.7429 20.5062 34.0974 20.427 35.5502H36.2832C36.2436 34.4901 36.0852 33.3514 35.8081 32.1343C35.531 30.9171 35.0955 29.7982 34.5016 28.7773C33.9473 27.7172 33.2149 26.8534 32.3043 26.186C31.3937 25.5185 30.2852 25.1848 28.9787 25.1848Z" fill="black"/>
<path d="M89.4952 45.2088C89.4556 45.7585 89.515 46.2493 89.6734 46.6812C89.7922 47.0738 89.9901 47.4468 90.2672 47.8002C90.584 48.1535 91.0393 48.4284 91.6331 48.6247C90.6434 48.5854 89.7922 48.4676 89.0795 48.2713C88.4461 48.075 87.872 47.8002 87.3573 47.4468C86.8426 47.0542 86.5853 46.4652 86.5853 45.68V43.8542C86.3082 44.2076 85.9122 44.6591 85.3976 45.2088C84.9225 45.7585 84.3484 46.3082 83.6754 46.8578C83.0023 47.3683 82.2303 47.8198 81.3593 48.2124C80.5279 48.5658 79.6173 48.7425 78.6275 48.7425C75.6978 48.7425 73.4807 48.1143 71.9762 46.8578C70.5114 45.6014 69.779 43.8739 69.779 41.6752V29.4252C69.779 29.3466 69.7592 29.2092 69.7196 29.0129C69.7196 28.8166 69.6602 28.6006 69.5414 28.3651C69.4226 28.1295 69.2049 27.9135 68.8882 27.7172C68.611 27.5209 68.1953 27.3639 67.641 27.2461L72.6295 24.8903V41.6752C72.6295 43.6776 73.1838 45.2677 74.2923 46.4456C75.4405 47.5842 76.9845 48.1535 78.9244 48.1535C79.835 48.1535 80.706 47.9572 81.5375 47.5646C82.3689 47.1327 83.1211 46.6615 83.7941 46.1511C84.4672 45.6014 85.0412 45.0518 85.5163 44.5021C85.9914 43.9524 86.3477 43.5205 86.5853 43.2064V29.3074C86.5853 29.0718 86.4863 28.7184 86.2884 28.2473C86.0904 27.7761 85.4767 27.4424 84.4474 27.2461L89.4952 24.8903V45.2088Z" fill="black"/>
<path d="M92.8686 48.6247C93.6605 48.5069 94.2345 48.2713 94.5908 47.9179C94.9868 47.5646 95.2837 47.172 95.4816 46.7401C95.6796 46.3082 95.7786 45.7977 95.7786 45.2088V20.7088C95.7786 20.6303 95.7588 20.4929 95.7192 20.2966C95.7192 20.1002 95.6598 19.8843 95.541 19.6487C95.4222 19.4131 95.2045 19.1972 94.8878 19.0009C94.6106 18.8046 94.1949 18.6475 93.6407 18.5297L98.6885 16.174V45.2088C98.6885 45.7977 98.7875 46.3082 98.9854 46.7401C99.1834 47.172 99.4605 47.5646 99.8168 47.9179C100.213 48.2713 100.807 48.5069 101.598 48.6247H92.8686Z" fill="black"/>
<path d="M121.106 45.68C121.106 46.5045 121.324 47.1523 121.759 47.6235C122.234 48.0946 122.769 48.4284 123.363 48.6247C121.581 48.6247 120.294 48.3106 119.502 47.6824C118.75 47.0149 118.335 46.2296 118.255 45.3266C118.176 45.4051 117.899 45.6211 117.424 45.9744C116.949 46.3278 116.296 46.7204 115.464 47.1523C114.672 47.5842 113.722 47.9768 112.614 48.3302C111.545 48.6443 110.357 48.8014 109.05 48.8014C106.398 48.8014 104.478 48.3106 103.29 47.329C102.142 46.3082 101.568 45.0125 101.568 43.442C101.568 42.2641 101.924 41.204 102.637 40.2617C103.389 39.2801 104.319 38.4163 105.428 37.6703C106.576 36.8851 107.823 36.198 109.169 35.6091C110.555 35.0201 111.861 34.5097 113.089 34.0778C114.316 33.6459 115.385 33.2925 116.296 33.0177C117.246 32.7036 117.879 32.468 118.196 32.311V32.1343C118.196 31.2705 118.077 30.446 117.84 29.6607C117.642 28.8362 117.285 28.1099 116.771 27.4816C116.296 26.8534 115.623 26.343 114.752 25.9504C113.881 25.5578 112.792 25.3615 111.485 25.3615C110.218 25.3615 109.13 25.6363 108.219 26.186C107.348 26.7357 106.616 27.4031 106.022 28.1884C105.428 28.9344 104.973 29.7196 104.656 30.5441C104.379 31.3294 104.201 31.9969 104.121 32.5466L103.646 28.1295C103.646 28.1295 103.805 27.9528 104.121 27.5994C104.478 27.2461 104.992 26.8731 105.665 26.4804C106.339 26.0878 107.17 25.7345 108.16 25.4203C109.149 25.067 110.317 24.8903 111.663 24.8903C112.574 24.8903 113.564 24.9885 114.633 25.1848C115.741 25.3811 116.771 25.7737 117.721 26.3627C118.671 26.9123 119.463 27.6976 120.096 28.7184C120.769 29.7 121.106 30.9957 121.106 32.6054V45.68ZM104.597 42.7353C104.597 43.4027 104.735 44.0702 105.012 44.7377C105.289 45.3659 105.646 45.9352 106.081 46.4456C106.556 46.956 107.091 47.3879 107.685 47.7413C108.278 48.0554 108.912 48.2124 109.585 48.2124C110.654 48.2124 111.683 48.0554 112.673 47.7413C113.702 47.3879 114.593 47.0149 115.345 46.6223C116.137 46.1904 116.771 45.7781 117.246 45.3855C117.76 44.9929 118.077 44.7573 118.196 44.6788V32.841C117.879 32.9981 117.325 33.214 116.533 33.4889C115.781 33.7637 114.89 34.0974 113.861 34.4901C112.871 34.8434 111.822 35.2753 110.713 35.7857C109.644 36.2962 108.655 36.9047 107.744 37.6115C106.833 38.2789 106.081 39.0445 105.487 39.9083C104.893 40.7328 104.597 41.6752 104.597 42.7353Z" fill="black"/>
<path d="M130.529 45.2088C130.529 45.7977 130.628 46.3082 130.826 46.7401C131.024 47.172 131.301 47.5646 131.657 47.9179C132.053 48.2713 132.647 48.5069 133.439 48.6247H124.709C125.501 48.5069 126.075 48.2713 126.431 47.9179C126.827 47.5646 127.124 47.172 127.322 46.7401C127.52 46.3082 127.619 45.7977 127.619 45.2088V29.4252C127.619 29.3466 127.599 29.2092 127.56 29.0129C127.56 28.8166 127.5 28.6006 127.381 28.3651C127.263 28.1295 127.045 27.9135 126.728 27.7172C126.451 27.5209 126.035 27.3639 125.481 27.2461L130.529 24.8903V30.6619C130.727 30.3086 131.044 29.7982 131.479 29.1307C131.954 28.4632 132.528 27.7957 133.201 27.1283C133.874 26.4608 134.646 25.8915 135.517 25.4203C136.388 24.9099 137.339 24.6547 138.368 24.6547C139.239 24.6547 139.971 24.7332 140.565 24.8903C141.159 25.0081 141.634 25.1455 141.99 25.3026C142.426 25.4989 142.762 25.7148 143 25.9504L141.575 30.3086C141.614 30.0337 141.555 29.6411 141.397 29.1307C141.278 28.581 141.06 28.051 140.743 27.5405C140.427 27.0301 140.011 26.5982 139.496 26.2449C139.021 25.8522 138.427 25.6559 137.715 25.6559C136.844 25.6559 136.012 25.8915 135.22 26.3627C134.468 26.8338 133.775 27.4031 133.142 28.0706C132.508 28.6988 131.954 29.327 131.479 29.9552C131.044 30.5834 130.727 31.0546 130.529 31.3687V45.2088Z" fill="black"/>
</svg>
